<svg xmlns="http://www.w3.org/2000/svg" >
  <symbol id="icon-target"  viewBox="0 0 1024 1024" width="200" height="200">
    <path d="M773.213091 292.957091l0.512-0.512L773.213091 292.957091z" fill="#ffffff" p-id="8647"></path>
    <path
      d="M704.977455 349.323636l87.691636-0.744727c5.538909-0.232727 10.845091-2.280727 14.894545-6.330182l163.84-163.793455c8.052364-8.098909 8.052364-21.736727 0-30.068364-4.608-4.794182-11.124364-6.842182-17.221818-6.097455l-73.262545 0.791273L881.850182 69.818182c0.558545-6.050909-1.489455-12.381091-6.004364-17.175273-8.657455-8.098909-22.016-8.098909-30.347636 0l-163.793455 163.746909c-3.770182 4.096-6.050909 9.402182-6.050909 15.220364l-1.536 87.970909-159.232 159.697455c-1.768727-0.512-3.537455-0.512-5.073455-0.512-19.688727 0-35.374545 15.918545-35.374545 35.421091 0 19.735273 15.685818 35.467636 35.374545 35.467636 19.735273 0 35.933091-15.732364 35.933091-35.467636 0-1.489455-0.558545-3.304727-0.837818-5.026909L704.977455 349.323636zM868.258909 185.530182 868.258909 185.530182l35.886545 0-120.878545 120.552727-35.374545 0.512L868.258909 185.530182zM718.149818 240.64 718.149818 240.64l120.832-120.32-0.512 35.421091-120.878545 120.552727L718.149818 240.64z"
      fill="#ffffff" p-id="8648"></path>
    <path
      d="M512 791.272727c-153.972364 0-279.272727-125.253818-279.272727-279.272727 0-154.018909 125.300364-279.272727 279.272727-279.272727 41.704727 0 82.152727 9.262545 120.226909 27.461818 11.636364 5.585455 16.523636 19.456 10.938182 31.045818-5.538909 11.636364-19.409455 16.477091-31.045818 10.984727C580.375273 286.999273 546.676364 279.272727 512 279.272727c-128.325818 0-232.727273 104.401455-232.727273 232.727273s104.401455 232.727273 232.727273 232.727273 232.727273-104.401455 232.727273-232.727273c0-34.629818-7.726545-68.282182-22.900364-100.072727-5.538909-11.589818-0.605091-25.506909 10.984727-31.045818 11.589818-5.538909 25.460364-0.605091 31.045818 10.938182C782.056727 429.940364 791.272727 470.341818 791.272727 512 791.272727 666.018909 665.972364 791.272727 512 791.272727"
      fill="#ffffff" p-id="8649"></path>
    <path
      d="M512 418.909091c51.339636 0 93.090909 41.751273 93.090909 93.090909 0 51.339636-41.751273 93.090909-93.090909 93.090909-51.339636 0-93.090909-41.751273-93.090909-93.090909C418.909091 460.660364 460.660364 418.909091 512 418.909091M512 372.363636c-77.125818 0-139.636364 62.510545-139.636364 139.636364s62.510545 139.636364 139.636364 139.636364 139.636364-62.510545 139.636364-139.636364S589.125818 372.363636 512 372.363636"
      fill="#ffffff" p-id="8650"></path>
    <path
      d="M512 1024C229.701818 1024 0 794.298182 0 512 0 229.701818 229.701818 0 512 0c55.156364 0 110.08 9.076364 163.281455 26.996364 24.343273 8.192 37.469091 34.629818 29.230545 58.973091-8.192 24.343273-34.304 37.562182-58.973091 29.230545C601.972364 100.584727 557.056 93.090909 512 93.090909c-230.958545 0-418.909091 187.904-418.909091 418.909091 0 231.005091 187.950545 418.909091 418.909091 418.909091 231.005091 0 418.909091-187.904 418.909091-418.909091 0-44.869818-7.447273-89.786182-22.155636-133.445818-8.192-24.343273 4.933818-50.781091 29.323636-58.973091 24.436364-8.238545 50.781091 4.933818 58.973091 29.277091C1014.923636 402.106182 1024 456.983273 1024 512 1024 794.298182 794.298182 1024 512 1024z"
      fill="#ffffff" p-id="8651"></path>
  </symbol>
  <symbol id="icon-status"  viewBox="0 0 1024 1024" width="200" height="200">
    <path
      d="M954.88 237.568c0-60.416-56.832-109.568-126.464-109.568H195.584c-70.144 0-126.464 49.152-126.464 109.568v548.352c0 60.416 56.832 109.568 126.464 109.568h632.832c70.144 0 126.464-49.152 126.464-109.568V237.568z m-803.84-28.16c11.776-10.24 28.16-16.384 45.056-15.872h632.832c34.816 0 63.488 14.336 63.488 44.544v246.784h-50.176l-54.272-47.104c-12.288-10.752-32.256-10.752-44.544 0-3.584 3.072-6.144 6.656-7.68 10.752l-38.912 101.888L604.16 390.144c-7.68-13.312-26.624-18.944-42.496-12.288-7.168 3.072-12.288 8.192-15.36 14.336l-92.16 199.68-101.376-307.2c-4.608-14.336-22.528-23.04-38.912-18.944-8.704 2.048-15.872 7.168-19.456 14.336l-117.76 204.288H133.12V247.808c-1.024-14.336 6.144-28.16 17.92-38.4z m725.504 611.84c-7.68 7.68-31.232 9.728-48.128 9.728H195.584c-16.896 0-32.768-5.632-45.056-15.872s-18.432-24.064-18.432-38.912v-236.544h63.488c11.776 0 23.04-5.632 28.16-15.36l90.112-156.16 104.448 316.416c3.584 11.264 15.36 19.456 28.672 19.968h1.536c12.8 0 24.576-6.656 29.184-17.408L578.56 468.992l95.232 164.864c7.68 13.312 26.624 18.944 42.496 12.288 7.68-3.072 13.312-8.704 15.872-15.872l47.104-122.368 27.136 23.552c6.144 5.12 13.824 8.192 22.528 8.192h62.976v236.544c0 14.336-9.728 40.448-14.336 44.544l-1.024 0.512z"
      p-id="13493" fill="#ffffff">
    </path>
  </symbol>
</svg>
          