<svg t="1703427891382" class="icon" viewBox="0 0 1024 1024" version="1.1" xmlns="http://www.w3.org/2000/svg" p-id="4411" width="32" height="32"><path d="M968.704 460.8c0-202.752-165.888-368.64-368.64-368.64s-368.64 165.888-368.64 368.64c0 188.416 141.312 342.016 323.584 364.544 10.24 2.048 22.528 4.096 36.864 4.096h12.288c202.752-2.048 364.544-165.888 364.544-368.64z" fill="#91E71B" p-id="4412"></path><path d="M231.424 514.048c0-22.528 2.048-45.056 6.144-65.536 14.336 14.336 45.056 14.336 53.248-8.192 14.336 8.192 32.768 10.24 32.768 26.624 0 55.296 2.048 114.688 51.2 114.688 2.048 0 28.672 10.24 40.96 43.008 4.096 12.288 22.528 0 40.96 0 10.24 0 0 16.384 0 51.2s73.728 88.064 73.728 88.064c0 22.528 0 40.96 2.048 55.296-16.384 0-30.72 2.048-40.96 6.144-147.456-26.624-260.096-155.648-260.096-311.296z m442.368 303.104c-2.048-10.24-10.24-14.336-24.576-10.24 12.288-51.2 18.432-79.872 43.008-102.4 36.864-32.768 4.096-67.584-24.576-63.488-22.528 4.096-8.192-26.624-28.672-28.672-20.48-2.048-45.056-40.96-73.728-53.248-14.336-6.144-30.72-26.624-53.248-26.624-20.48 0-51.2 16.384-51.2 4.096 0-45.056-4.096-77.824-6.144-90.112 0-10.24-6.144-4.096 20.48-2.048 14.336 0 8.192-30.72 22.528-30.72 14.336-2.048 49.152 14.336 59.392 8.192 8.192-6.144 61.44 137.216 61.44 24.576 0-14.336-6.144-36.864 0-49.152 28.672-51.2 53.248-92.16 51.2-98.304-2.048-4.096-28.672-6.144-49.152 2.048-8.192 2.048 2.048 14.336-8.192 16.384-38.912 8.192-73.728-10.24-61.44-28.672 12.288-18.432 57.344-8.192 61.44-47.104 2.048-22.528 4.096-47.104 6.144-65.536 53.248 8.192 47.104-69.632-30.72-77.824C747.52 94.208 880.64 196.608 931.84 339.968c-2.048-2.048-6.144-4.096-8.192-4.096-24.576-59.392-81.92-16.384-61.44 36.864C757.76 452.608 784.384 509.952 819.2 542.72c18.432 16.384 34.816 43.008 47.104 61.44-12.288 34.816 45.056 20.48 73.728-38.912-38.912 122.88-139.264 219.136-266.24 251.904z" fill="#1C91FF" p-id="4413"></path><path d="M591.872 849.92c-16.384 0-30.72-2.048-40.96-4.096C358.4 821.248 210.944 655.36 210.944 460.8c0-215.04 174.08-389.12 389.12-389.12s389.12 174.08 389.12 389.12c0 212.992-172.032 387.072-385.024 389.12h-12.288z m8.192-737.28c-192.512 0-348.16 155.648-348.16 348.16 0 176.128 131.072 323.584 305.152 346.112 14.336 2.048 30.72 4.096 45.056 2.048 192.512-2.048 346.112-157.696 346.112-348.16s-155.648-348.16-348.16-348.16z" fill="#1C2754" p-id="4414"></path><path d="M57.344 782.336L141.312 921.6c4.096 6.144 10.24 10.24 16.384 10.24h106.496c36.864 0 75.776-10.24 106.496-30.72l210.944-126.976c10.24-6.144 12.288-18.432 6.144-26.624-20.48-34.816-61.44-53.248-102.4-43.008L409.6 720.896c-6.144-36.864-38.912-63.488-77.824-57.344l-102.4 14.336c-30.72 4.096-61.44 14.336-90.112 30.72L61.44 755.712c-6.144 6.144-8.192 16.384-4.096 26.624z" fill="#FFD2BF" p-id="4415"></path><path d="M264.192 952.32H157.696c-14.336 0-26.624-8.192-34.816-20.48L38.912 790.528c-10.24-18.432-2.048-40.96 14.336-53.248l77.824-47.104c30.72-18.432 63.488-28.672 98.304-34.816l102.4-14.336c40.96-6.144 79.872 18.432 94.208 53.248l55.296-12.288c49.152-10.24 98.304 10.24 122.88 53.248 12.288 18.432 6.144 43.008-14.336 55.296L378.88 917.504c-32.768 22.528-73.728 34.816-114.688 34.816zM75.776 774.144l81.92 137.216h104.448c34.816 0 67.584-10.24 96.256-26.624L569.344 757.76c-16.384-26.624-49.152-40.96-79.872-32.768l-96.256 22.528-4.096-22.528c-4.096-26.624-28.672-45.056-53.248-40.96l-102.4 14.336c-28.672 4.096-57.344 14.336-81.92 28.672l-75.776 47.104z" fill="#1C2754" p-id="4416"></path><path d="M247.808 798.72c-8.192 0-16.384-6.144-18.432-14.336-4.096-10.24 2.048-22.528 12.288-26.624l165.888-57.344c10.24-4.096 22.528 2.048 26.624 12.288s-4.096 24.576-14.336 28.672L253.952 798.72h-6.144z" fill="#1C2754" p-id="4417"></path></svg>